Coordinates
version=1
nRows=20
nColumns=38
inDegrees=no

Units are S.I. units (second, meters, Newtons, ...)
If the header above contains a line with 'inDegrees', this indicates whether rotational values are in degrees (yes) or radians (no).

endheader
time	pelvis_tilt	pelvis_list	pelvis_rotation	pelvis_tx	pelvis_ty	pelvis_tz	hip_flexion_r	hip_adduction_r	hip_rotation_r	knee_angle_r	ankle_angle_r	subtalar_angle_r	mtp_angle_r	hip_flexion_l	hip_adduction_l	hip_rotation_l	knee_angle_l	ankle_angle_l	subtalar_angle_l	mtp_angle_l	lumbar_extension	lumbar_bending	lumbar_rotation	arm_flex_r	arm_add_r	arm_rot_r	elbow_flex_r	pro_sup_r	wrist_flex_r	wrist_dev_r	arm_flex_l	arm_add_l	arm_rot_l	elbow_flex_l	pro_sup_l	wrist_flex_l	wrist_dev_l
10	0.255938	1.3575	1.38818	0.673136	0.148286	1.03939	0.435625	-0.013088	0.0535359	0.377492	-0.271635	0	0	0.422287	-0.152512	-0.15686	0.51122	-0.264372	0	0	-0.423093	0.0440703	-0.0120903	0.563919	-0.457937	1.38368	0.607769	0.303392	0	0	0.167333	-0.309763	0.325347	0.625942	0.935019	0	0
10.01	0.267585	1.3661	1.37619	0.672971	0.150706	1.04159	0.411691	-0.0139712	0.0446347	0.355459	-0.279654	0	0	0.399949	-0.151365	-0.156978	0.492256	-0.267541	0	0	-0.421262	0.045167	-0.0117337	0.560399	-0.457858	1.39014	0.606653	0.299326	0	0	0.163508	-0.310249	0.332039	0.623677	0.928274	0	0
10.02	0.280323	1.37454	1.36312	0.672888	0.15308	1.04358	0.38803	-0.0146404	0.0358365	0.333259	-0.288026	0	0	0.378084	-0.150412	-0.156625	0.473819	-0.270329	0	0	-0.419299	0.0460851	-0.0111672	0.556188	-0.457605	1.39497	0.605532	0.295445	0	0	0.159712	-0.310769	0.338328	0.621373	0.92252	0	0
10.03	0.293675	1.38267	1.34959	0.67285	0.155389	1.04537	0.364251	-0.0152399	0.0274923	0.309699	-0.296802	0	0	0.356617	-0.149599	-0.156034	0.455518	-0.272936	0	0	-0.417253	0.0468709	-0.0105276	0.55124	-0.457384	1.39764	0.604739	0.292662	0	0	0.155969	-0.311185	0.343606	0.619156	0.918414	0	0
10.04	0.308452	1.39041	1.33469	0.672711	0.15765	1.04704	0.340091	-0.0156767	0.0180538	0.28415	-0.305005	0	0	0.335418	-0.148808	-0.155341	0.436911	-0.27536	0	0	-0.415541	0.0478771	-0.00978221	0.546011	-0.457392	1.39827	0.604019	0.292929	0	0	0.152454	-0.310934	0.347403	0.616687	0.916138	0	0
10.05	0.317896	1.39714	1.32474	0.672705	0.159929	1.04832	0.318768	-0.0167974	0.0111087	0.262163	-0.310427	0	0	0.315244	-0.147544	-0.1557	0.418168	-0.277442	0	0	-0.412329	0.0475561	-0.00877864	0.539171	-0.456761	1.39595	0.602625	0.296563	0	0	0.148724	-0.31088	0.350779	0.614043	0.915348	0	0
10.06	0.330997	1.40576	1.31083	0.672685	0.162146	1.04971	0.294815	-0.0174943	0.00700116	0.238549	-0.323987	0	0	0.292047	-0.146358	-0.157237	0.397359	-0.281763	0	0	-0.41102	0.048193	-0.00935503	0.540106	-0.456422	1.41526	0.602546	0.278149	0	0	0.144771	-0.311686	0.357083	0.611056	0.908427	0	0
10.07	0.338302	1.4116	1.30176	0.67276	0.164416	1.0507	0.274054	-0.0181032	0.0056827	0.214665	-0.332124	0	0	0.272465	-0.144883	-0.158999	0.378225	-0.284224	0	0	-0.407657	0.0471843	-0.00746596	0.534263	-0.45609	1.41538	0.60142	0.278199	0	0	0.141469	-0.311113	0.360083	0.607331	0.908227	0	0
10.08	0.339584	1.4165	1.29713	0.672997	0.166924	1.05139	0.255194	-0.0192524	0.00494582	0.19156	-0.341185	0	0	0.253447	-0.143174	-0.163437	0.35916	-0.286857	0	0	-0.40281	0.0448649	-0.00420983	0.526975	-0.455675	1.41432	0.600134	0.27648	0	0	0.137958	-0.310384	0.363797	0.602647	0.908336	0	0
10.09	0.341656	1.42145	1.29267	0.673299	0.169251	1.05199	0.238462	-0.0203228	0.00420458	0.172848	-0.347139	0	0	0.235469	-0.141496	-0.166274	0.341323	-0.289307	0	0	-0.39823	0.0429396	-0.00190069	0.520506	-0.454719	1.41463	0.598633	0.273983	0	0	0.134662	-0.310255	0.367499	0.59841	0.907515	0	0
10.1	0.344894	1.42671	1.28783	0.673624	0.171374	1.05257	0.223763	-0.0212609	0.00358239	0.158709	-0.350969	0	0	0.217994	-0.139685	-0.167142	0.32412	-0.291943	0	0	-0.394342	0.0414767	-0.00039701	0.515266	-0.45367	1.41703	0.59741	0.270904	0	0	0.131844	-0.310488	0.37149	0.594286	0.905727	0	0
10.11	0.352985	1.43276	1.27913	0.673882	0.173281	1.05318	0.210127	-0.021658	0.00221536	0.148923	-0.352434	0	0	0.200532	-0.137956	-0.165177	0.307748	-0.294456	0	0	-0.391648	0.0410536	0.000358812	0.511484	-0.452895	1.42226	0.596698	0.267453	0	0	0.12983	-0.310818	0.376335	0.589792	0.903896	0	0
10.12	0.357044	1.43739	1.27403	0.674204	0.175103	1.05356	0.200758	-0.0220667	0.00182502	0.144274	-0.351816	0	0	0.1863	-0.136641	-0.165403	0.294719	-0.295923	0	0	-0.387822	0.040337	0.00113573	0.50755	-0.451775	1.4262	0.595587	0.26385	0	0	0.12744	-0.310863	0.379338	0.585337	0.902888	0	0
10.13	0.360389	1.44097	1.26989	0.674556	0.176598	1.05386	0.193661	-0.0220465	0.0036685	0.140837	-0.350542	0	0	0.175239	-0.135757	-0.165776	0.284757	-0.297056	0	0	-0.383849	0.040013	0.00138804	0.504942	-0.450405	1.43133	0.594451	0.260102	0	0	0.125597	-0.31075	0.381524	0.580544	0.902201	0	0
10.14	0.363571	1.44419	1.26663	0.674927	0.17783	1.05412	0.188959	-0.0220396	0.00560249	0.141059	-0.348374	0	0	0.166684	-0.135192	-0.16602	0.277923	-0.29776	0	0	-0.380104	0.0400614	0.000901696	0.503372	-0.448819	1.43765	0.59342	0.256436	0	0	0.124098	-0.310617	0.382432	0.576047	0.901864	0	0
10.15	0.362964	1.44658	1.26635	0.675184	0.17894	1.05435	0.186257	-0.0223594	0.00951998	0.142608	-0.345278	0	0	0.15989	-0.134366	-0.167715	0.272436	-0.298629	0	0	-0.376131	0.040122	0.000809514	0.502828	-0.447794	1.44544	0.592743	0.250795	0	0	0.123063	-0.309253	0.382089	0.57036	0.902607	0	0
10.16	0.361347	1.44857	1.26657	0.675319	0.179985	1.05458	0.185331	-0.0228158	0.0127397	0.147169	-0.340812	0	0	0.154248	-0.133512	-0.17096	0.268256	-0.299496	0	0	-0.372383	0.0403917	0.000928211	0.502595	-0.447297	1.45271	0.592662	0.242489	0	0	0.122189	-0.3072	0.381067	0.564351	0.90393	0	0
10.17	0.361423	1.45094	1.26571	0.675425	0.180895	1.05485	0.185073	-0.023262	0.0145158	0.154464	-0.334989	0	0	0.149266	-0.132842	-0.174196	0.265675	-0.300148	0	0	-0.369315	0.0411144	0.000249745	0.50343	-0.446988	1.46156	0.593194	0.233354	0	0	0.121464	-0.305362	0.380061	0.558621	0.904962	0	0
10.18	0.364561	1.45375	1.26273	0.675526	0.1816	1.05518	0.184952	-0.0237004	0.0154716	0.16261	-0.3304	0	0	0.144951	-0.13247	-0.176409	0.264638	-0.300509	0	0	-0.367282	0.0422905	-0.0011243	0.50489	-0.446769	1.47026	0.594104	0.226652	0	0	0.121101	-0.304133	0.379551	0.553889	0.90594	0	0
10.19	0.368201	1.45622	1.25939	0.675572	0.182104	1.05556	0.184573	-0.0240127	0.0177079	0.168379	-0.326606	0	0	0.141886	-0.132134	-0.17829	0.264857	-0.300758	0	0	-0.365639	0.0437034	-0.00250779	0.507083	-0.446801	1.47941	0.595249	0.219926	0	0	0.121299	-0.302894	0.379314	0.549374	0.907286	0	0
